<?xml version="1.0" encoding="utf-8"?>
<!-- Generator: Adobe Illustrator 23.0.1, SVG Export Plug-In . SVG Version: 6.00 Build 0)  -->
<svg version="1.1" id="Layer_1" xmlns="http://www.w3.org/2000/svg" xmlns:xlink="http://www.w3.org/1999/xlink" x="0px" y="0px"
	 viewBox="0 0 85.04 85.04" style="enable-background:new 0 0 85.04 85.04;" xml:space="preserve">
<style type="text/css">
	.st0{fill:#FFFFFF;}
</style>
<g>
	<path class="st0" d="M75.31,48.16H9.73c-3.12,0-5.64-2.53-5.64-5.64v0c0-3.12,2.53-5.64,5.64-5.64h65.59
		c3.12,0,5.64,2.53,5.64,5.64v0C80.96,45.64,78.43,48.16,75.31,48.16z"/>
	<path class="st0" d="M42.52,80.96L42.52,80.96c-3.12,0-5.64-2.53-5.64-5.64V9.73c0-3.12,2.53-5.64,5.64-5.64h0
		c3.12,0,5.64,2.53,5.64,5.64v65.59C48.16,78.43,45.64,80.96,42.52,80.96z"/>
</g>
</svg>
