<?xml version="1.0" encoding="utf-8"?>
<!-- Generator: Adobe Illustrator 23.0.1, SVG Export Plug-In . SVG Version: 6.00 Build 0)  -->
<svg version="1.1" id="Layer_1" xmlns="http://www.w3.org/2000/svg" xmlns:xlink="http://www.w3.org/1999/xlink" x="0px" y="0px"
	 viewBox="0 0 85.04 85.04" style="enable-background:new 0 0 85.04 85.04;" xml:space="preserve">
<style type="text/css">
	.st0{fill:#FFFFFF;}
</style>
<g>
	<ellipse transform="matrix(0.9871 -0.1602 0.1602 0.9871 -3.34 3.4552)" class="st0" cx="19.76" cy="22.44" rx="8.86" ry="8.86"/>
	<circle class="st0" cx="65.28" cy="22.44" r="8.86"/>
	<path class="st0" d="M77.83,50.89L77.83,50.89c-2.05-2.05-5.29-2.18-7.55-0.38c-16.19,12.88-39.33,12.88-55.52,0
		c-2.27-1.8-5.51-1.67-7.55,0.38l0,0c-2.39,2.39-2.15,6.32,0.5,8.43c10.15,8.09,22.48,12.13,34.82,12.13
		c12.33,0,24.67-4.04,34.82-12.13C79.98,57.22,80.22,53.28,77.83,50.89z"/>
</g>
</svg>
