<?xml version="1.0" encoding="utf-8"?>
<!-- Generator: Adobe Illustrator 23.0.1, SVG Export Plug-In . SVG Version: 6.00 Build 0)  -->
<svg version="1.1" id="Layer_1" xmlns="http://www.w3.org/2000/svg" xmlns:xlink="http://www.w3.org/1999/xlink" x="0px" y="0px"
	 viewBox="0 0 85.04 85.04" style="enable-background:new 0 0 85.04 85.04;" xml:space="preserve">
<style type="text/css">
	.st0{fill:#FFFFFF;}
</style>
<g>
	<path class="st0" d="M75.31,30.31H9.73c-3.12,0-5.64-2.53-5.64-5.64v0c0-3.12,2.53-5.64,5.64-5.64h65.59
		c3.12,0,5.64,2.53,5.64,5.64v0C80.96,27.79,78.43,30.31,75.31,30.31z"/>
	<path class="st0" d="M75.31,66.02H9.73c-3.12,0-5.64-2.53-5.64-5.64v0c0-3.12,2.53-5.64,5.64-5.64h65.59
		c3.12,0,5.64,2.53,5.64,5.64v0C80.96,63.49,78.43,66.02,75.31,66.02z"/>
</g>
</svg>
